<svg width="36" height="36" viewBox="0 0 118 118" fill="none" xmlns="http://www.w3.org/2000/svg">
<mask id="mask0_56_14" style="mask-type:luminance" maskUnits="userSpaceOnUse" x="3" y="3" width="112" height="112">
<path d="M114.722 3.27777H3.27783V114.722H114.722V3.27777Z" fill="white"/>
</mask>
<g mask="url(#mask0_56_14)">
<path d="M105.435 81.8455V95.776C105.44 97.0694 105.175 98.3491 104.657 99.5343C104.139 100.719 103.379 101.783 102.426 102.657C101.474 103.531 100.348 104.197 99.1233 104.612C97.8981 105.026 96.6001 105.179 95.3119 105.063C81.0228 103.51 67.2976 98.6277 55.2384 90.8076C44.0189 83.6784 34.5066 74.1656 27.3773 62.9464C19.5296 50.8324 14.6458 37.0401 13.1217 22.6871C13.0056 21.403 13.1583 20.1088 13.5697 18.8869C13.9813 17.665 14.6428 16.5422 15.512 15.59C16.3812 14.6378 17.4392 13.877 18.6186 13.356C19.798 12.835 21.073 12.5654 22.3623 12.5642H36.2928C38.5463 12.542 40.731 13.34 42.4398 14.8094C44.1484 16.2789 45.2645 18.3196 45.5799 20.5511C46.1678 25.0091 47.2583 29.3864 48.8303 33.5993C49.4551 35.2613 49.5903 37.0677 49.22 38.8042C48.8496 40.5407 47.9892 42.1346 46.7407 43.3972L40.8435 49.2944C47.4538 60.9197 57.0793 70.545 68.7046 77.1556L74.6016 71.2582C75.8642 70.01 77.4585 69.1493 79.1951 68.7789C80.9317 68.4085 82.7377 68.5442 84.3996 69.169C88.6128 70.741 92.99 71.8312 97.4477 72.4192C99.7035 72.7372 101.764 73.8732 103.236 75.6118C104.709 77.3497 105.491 79.5681 105.435 81.8455Z" stroke="#336BC5" stroke-width="1.77778" stroke-linecap="round" stroke-linejoin="round"/>
</g>
</svg>
